<?xml version="1.0" encoding="UTF-8" standalone="no"?>
<!DOCTYPE svg PUBLIC "-//W3C//DTD SVG 1.1//EN"
 "http://www.w3.org/Graphics/SVG/1.1/DTD/svg11.dtd">
<!-- Generated by graphviz version 2.47.0 (20210316.0004)
 -->
<!-- Title: dependencies Pages: 1 -->
<svg width="504pt" height="211pt"
 viewBox="0.00 0.00 504.00 211.00" xmlns="http://www.w3.org/2000/svg" xmlns:xlink="http://www.w3.org/1999/xlink">
<g id="graph0" class="graph" transform="scale(1 1) rotate(0) translate(4 207)">
<title>dependencies</title>
<polygon fill="white" stroke="transparent" points="-4,4 -4,-207 500,-207 500,4 -4,4"/>
<text text-anchor="start" x="227.01" y="-42.4" font-family="sans-serif" font-weight="bold" font-size="14.00">Legend</text>
<polygon fill="#ffffb3" stroke="transparent" points="14,-10 14,-30 34,-30 34,-10 14,-10"/>
<text text-anchor="start" x="37.63" y="-15.4" font-family="sans-serif" font-size="14.00"> &#160;Declarations</text>
<polygon fill="#8dd3c7" stroke="transparent" points="127,-10 127,-30 147,-30 147,-10 127,-10"/>
<text text-anchor="start" x="150.73" y="-15.4" font-family="sans-serif" font-size="14.00"> &#160;Module</text>
<polygon fill="#80b1d3" stroke="transparent" points="213,-10 213,-30 233,-30 233,-10 213,-10"/>
<text text-anchor="start" x="236.78" y="-15.4" font-family="sans-serif" font-size="14.00"> &#160;Bootstrap</text>
<polygon fill="#fdb462" stroke="transparent" points="310,-10 310,-30 330,-30 330,-10 310,-10"/>
<text text-anchor="start" x="333.67" y="-15.4" font-family="sans-serif" font-size="14.00"> &#160;Providers</text>
<polygon fill="#fb8072" stroke="transparent" points="406,-10 406,-30 426,-30 426,-10 406,-10"/>
<text text-anchor="start" x="429.73" y="-15.4" font-family="sans-serif" font-size="14.00"> &#160;Exports</text>
<g id="clust1" class="cluster">
<title>cluster_SharedModule</title>
<polygon fill="none" stroke="black" stroke-dasharray="1,5" points="115.5,-70 115.5,-195 380.5,-195 380.5,-70 115.5,-70"/>
</g>
<g id="clust4" class="cluster">
<title>cluster_SharedModule_exports</title>
<polygon fill="none" stroke="black" points="123.5,-135 123.5,-187 372.5,-187 372.5,-135 123.5,-135"/>
</g>
<!-- IconsModule  -->
<g id="node1" class="node">
<title>IconsModule </title>
<polygon fill="#fb8072" stroke="black" points="364.37,-179 270.63,-179 270.63,-143 364.37,-143 364.37,-179"/>
<text text-anchor="middle" x="317.5" y="-156.8" font-family="Times,serif" font-size="14.00">IconsModule </text>
</g>
<!-- TemplatesModule  -->
<g id="node2" class="node">
<title>TemplatesModule </title>
<polygon fill="#fb8072" stroke="black" points="253.36,-179 131.64,-179 131.64,-143 253.36,-143 253.36,-179"/>
<text text-anchor="middle" x="192.5" y="-156.8" font-family="Times,serif" font-size="14.00">TemplatesModule </text>
</g>
<!-- SharedModule -->
<g id="node3" class="node">
<title>SharedModule</title>
<polygon fill="#8dd3c7" stroke="black" points="303.92,-114 300.92,-118 279.92,-118 276.92,-114 205.08,-114 205.08,-78 303.92,-78 303.92,-114"/>
<text text-anchor="middle" x="254.5" y="-91.8" font-family="Times,serif" font-size="14.00">SharedModule</text>
</g>
<!-- SharedModule&#45;&gt;IconsModule  -->
<g id="edge1" class="edge">
<title>SharedModule&#45;&gt;IconsModule </title>
<path fill="none" stroke="black" stroke-dasharray="5,2" d="M287.26,-114.11C287.26,-114.11 287.26,-132.99 287.26,-132.99"/>
<polygon fill="black" stroke="black" points="283.76,-132.99 287.26,-142.99 290.76,-132.99 283.76,-132.99"/>
</g>
<!-- SharedModule&#45;&gt;TemplatesModule  -->
<g id="edge2" class="edge">
<title>SharedModule&#45;&gt;TemplatesModule </title>
<path fill="none" stroke="black" stroke-dasharray="5,2" d="M229.24,-114.11C229.24,-114.11 229.24,-132.99 229.24,-132.99"/>
<polygon fill="black" stroke="black" points="225.74,-132.99 229.24,-142.99 232.74,-132.99 225.74,-132.99"/>
</g>
</g>
</svg>
