<?xml version="1.0" encoding="UTF-8" standalone="no"?>
<!DOCTYPE svg PUBLIC "-//W3C//DTD SVG 1.1//EN"
 "http://www.w3.org/Graphics/SVG/1.1/DTD/svg11.dtd">
<!-- Generated by graphviz version 2.47.0 (20210316.0004)
 -->
<!-- Title: dependencies Pages: 1 -->
<svg width="856pt" height="211pt"
 viewBox="0.00 0.00 856.00 211.00" xmlns="http://www.w3.org/2000/svg" xmlns:xlink="http://www.w3.org/1999/xlink">
<g id="graph0" class="graph" transform="scale(1 1) rotate(0) translate(4 207)">
<title>dependencies</title>
<polygon fill="white" stroke="transparent" points="-4,4 -4,-207 852,-207 852,4 -4,4"/>
<text text-anchor="start" x="403.01" y="-42.4" font-family="sans-serif" font-weight="bold" font-size="14.00">Legend</text>
<polygon fill="#ffffb3" stroke="transparent" points="190,-10 190,-30 210,-30 210,-10 190,-10"/>
<text text-anchor="start" x="213.63" y="-15.4" font-family="sans-serif" font-size="14.00"> &#160;Declarations</text>
<polygon fill="#8dd3c7" stroke="transparent" points="303,-10 303,-30 323,-30 323,-10 303,-10"/>
<text text-anchor="start" x="326.73" y="-15.4" font-family="sans-serif" font-size="14.00"> &#160;Module</text>
<polygon fill="#80b1d3" stroke="transparent" points="389,-10 389,-30 409,-30 409,-10 389,-10"/>
<text text-anchor="start" x="412.78" y="-15.4" font-family="sans-serif" font-size="14.00"> &#160;Bootstrap</text>
<polygon fill="#fdb462" stroke="transparent" points="486,-10 486,-30 506,-30 506,-10 486,-10"/>
<text text-anchor="start" x="509.67" y="-15.4" font-family="sans-serif" font-size="14.00"> &#160;Providers</text>
<polygon fill="#fb8072" stroke="transparent" points="582,-10 582,-30 602,-30 602,-10 582,-10"/>
<text text-anchor="start" x="605.73" y="-15.4" font-family="sans-serif" font-size="14.00"> &#160;Exports</text>
<g id="clust1" class="cluster">
<title>cluster_LoginModule</title>
<polygon fill="none" stroke="black" stroke-dasharray="1,5" points="8,-70 8,-195 840,-195 840,-70 8,-70"/>
</g>
<g id="clust7" class="cluster">
<title>cluster_LoginModule_imports</title>
<polygon fill="none" stroke="black" points="678,-78 678,-130 832,-130 832,-78 678,-78"/>
</g>
<g id="clust2" class="cluster">
<title>cluster_LoginModule_declarations</title>
<polygon fill="none" stroke="black" points="16,-78 16,-130 670,-130 670,-78 16,-78"/>
</g>
<!-- PageForgotComponent -->
<g id="node1" class="node">
<title>PageForgotComponent</title>
<polygon fill="#ffffb3" stroke="black" points="661.88,-122 516.12,-122 516.12,-86 661.88,-86 661.88,-122"/>
<text text-anchor="middle" x="589" y="-99.8" font-family="Times,serif" font-size="14.00">PageForgotComponent</text>
</g>
<!-- LoginModule -->
<g id="node5" class="node">
<title>LoginModule</title>
<polygon fill="#8dd3c7" stroke="black" points="474.49,-187 471.49,-191 450.49,-191 447.49,-187 381.51,-187 381.51,-151 474.49,-151 474.49,-187"/>
<text text-anchor="middle" x="428" y="-164.8" font-family="Times,serif" font-size="14.00">LoginModule</text>
</g>
<!-- PageForgotComponent&#45;&gt;LoginModule -->
<g id="edge1" class="edge">
<title>PageForgotComponent&#45;&gt;LoginModule</title>
<path fill="none" stroke="black" d="M589,-122.02C589,-139.37 589,-163 589,-163 589,-163 484.57,-163 484.57,-163"/>
<polygon fill="black" stroke="black" points="484.57,-159.5 474.57,-163 484.57,-166.5 484.57,-159.5"/>
</g>
<!-- PageResetComponent -->
<g id="node2" class="node">
<title>PageResetComponent</title>
<polygon fill="#ffffb3" stroke="black" points="497.65,-122 358.35,-122 358.35,-86 497.65,-86 497.65,-122"/>
<text text-anchor="middle" x="428" y="-99.8" font-family="Times,serif" font-size="14.00">PageResetComponent</text>
</g>
<!-- PageResetComponent&#45;&gt;LoginModule -->
<g id="edge2" class="edge">
<title>PageResetComponent&#45;&gt;LoginModule</title>
<path fill="none" stroke="black" d="M428,-122.11C428,-122.11 428,-140.99 428,-140.99"/>
<polygon fill="black" stroke="black" points="424.5,-140.99 428,-150.99 431.5,-140.99 424.5,-140.99"/>
</g>
<!-- PageSignInComponent -->
<g id="node3" class="node">
<title>PageSignInComponent</title>
<polygon fill="#ffffb3" stroke="black" points="339.88,-122 194.12,-122 194.12,-86 339.88,-86 339.88,-122"/>
<text text-anchor="middle" x="267" y="-99.8" font-family="Times,serif" font-size="14.00">PageSignInComponent</text>
</g>
<!-- PageSignInComponent&#45;&gt;LoginModule -->
<g id="edge3" class="edge">
<title>PageSignInComponent&#45;&gt;LoginModule</title>
<path fill="none" stroke="black" d="M267,-122.02C267,-139.37 267,-163 267,-163 267,-163 371.43,-163 371.43,-163"/>
<polygon fill="black" stroke="black" points="371.43,-166.5 381.43,-163 371.43,-159.5 371.43,-166.5"/>
</g>
<!-- PageSignUpComponent -->
<g id="node4" class="node">
<title>PageSignUpComponent</title>
<polygon fill="#ffffb3" stroke="black" points="175.82,-122 24.18,-122 24.18,-86 175.82,-86 175.82,-122"/>
<text text-anchor="middle" x="100" y="-99.8" font-family="Times,serif" font-size="14.00">PageSignUpComponent</text>
</g>
<!-- PageSignUpComponent&#45;&gt;LoginModule -->
<g id="edge4" class="edge">
<title>PageSignUpComponent&#45;&gt;LoginModule</title>
<path fill="none" stroke="black" d="M100,-122.28C100,-143.32 100,-175 100,-175 100,-175 371.35,-175 371.35,-175"/>
<polygon fill="black" stroke="black" points="371.35,-178.5 381.35,-175 371.35,-171.5 371.35,-178.5"/>
</g>
<!-- LoginRoutingModule -->
<g id="node6" class="node">
<title>LoginRoutingModule</title>
<polygon fill="#8dd3c7" stroke="black" points="824.11,-122 821.11,-126 800.11,-126 797.11,-122 685.89,-122 685.89,-86 824.11,-86 824.11,-122"/>
<text text-anchor="middle" x="755" y="-99.8" font-family="Times,serif" font-size="14.00">LoginRoutingModule</text>
</g>
<!-- LoginRoutingModule&#45;&gt;LoginModule -->
<g id="edge5" class="edge">
<title>LoginRoutingModule&#45;&gt;LoginModule</title>
<path fill="none" stroke="black" d="M755,-122.28C755,-143.32 755,-175 755,-175 755,-175 484.5,-175 484.5,-175"/>
<polygon fill="black" stroke="black" points="484.5,-171.5 474.5,-175 484.5,-178.5 484.5,-171.5"/>
</g>
</g>
</svg>
